<svg xmlns="http://www.w3.org/2000/svg" xmlns:xlink="http://www.w3.org/1999/xlink" width="500" zoomAndPan="magnify" viewBox="0 0 375 374.999991" height="500" preserveAspectRatio="xMidYMid meet" version="1.0"><defs><g/><clipPath id="b798958268"><path d="M 60.78125 30.550781 L 305.28125 30.550781 L 305.28125 292 L 60.78125 292 Z M 60.78125 30.550781 " clip-rule="nonzero"/></clipPath><clipPath id="34c40fd095"><rect x="0" width="276" y="0" height="74"/></clipPath><clipPath id="dc895d2a8e"><path d="M 0 1 L 161.519531 1 L 161.519531 106 L 0 106 Z M 0 1 " clip-rule="nonzero"/></clipPath><clipPath id="f1c0ae365a"><rect x="0" width="162" y="0" height="107"/></clipPath></defs><g clip-path="url(#b798958268)"><path fill="#d3d2ff" d="M 182.90625 75.179688 C 160.976562 75.441406 140.398438 84.183594 124.964844 99.789062 C 109.515625 115.40625 101.015625 136.109375 101.015625 158.074219 C 101.015625 182.933594 112.027344 206.265625 131.238281 222.085938 C 137.296875 227.078125 140.773438 234.480469 140.773438 242.402344 L 140.773438 263.097656 C 140.773438 278.980469 153.699219 291.90625 169.582031 291.90625 L 198.242188 291.90625 C 214.125 291.90625 227.050781 278.980469 227.050781 263.097656 L 227.050781 242.402344 C 227.050781 234.5 230.574219 227.058594 236.71875 221.976562 C 256.21875 205.847656 267.1875 182.085938 266.800781 156.785156 C 266.109375 111.238281 228.480469 74.625 182.90625 75.179688 Z M 198.242188 280.46875 L 169.582031 280.46875 C 160.933594 280.46875 153.746094 274.117188 152.425781 265.835938 L 215.398438 265.835938 C 214.078125 274.121094 206.890625 280.46875 198.242188 280.46875 Z M 215.617188 254.402344 L 152.207031 254.402344 L 152.207031 248.113281 L 215.617188 248.113281 Z M 229.433594 213.160156 C 222.152344 219.183594 217.445312 227.546875 216.054688 236.679688 L 151.773438 236.679688 C 150.390625 227.53125 145.734375 219.207031 138.507812 213.253906 C 121.949219 199.617188 112.453125 179.503906 112.453125 158.066406 C 112.453125 119.128906 144.121094 87.078125 183.046875 86.609375 C 183.335938 86.605469 183.621094 86.605469 183.914062 86.605469 C 222.804688 86.605469 254.785156 117.984375 255.378906 156.957031 C 255.699219 178.769531 246.246094 199.253906 229.433594 213.160156 Z M 178.195312 57.738281 L 178.195312 36.40625 C 178.195312 33.246094 180.753906 30.691406 183.914062 30.691406 C 187.074219 30.691406 189.628906 33.246094 189.628906 36.40625 L 189.628906 57.738281 C 189.628906 60.898438 187.074219 63.453125 183.914062 63.453125 C 180.753906 63.453125 178.195312 60.898438 178.195312 57.738281 Z M 226.402344 68.09375 L 237.066406 49.625 C 238.648438 46.890625 242.144531 45.953125 244.878906 47.53125 C 247.613281 49.109375 248.546875 52.605469 246.972656 55.339844 L 236.308594 73.8125 C 235.25 75.648438 233.324219 76.671875 231.351562 76.671875 C 230.378906 76.671875 229.394531 76.421875 228.496094 75.902344 C 225.761719 74.328125 224.828125 70.828125 226.402344 68.09375 Z M 287.164062 100.40625 L 268.695312 111.074219 C 267.792969 111.59375 266.8125 111.84375 265.839844 111.84375 C 263.863281 111.84375 261.941406 110.820312 260.882812 108.984375 C 259.300781 106.25 260.242188 102.753906 262.976562 101.171875 L 281.449219 90.507812 C 284.1875 88.925781 287.679688 89.867188 289.261719 92.601562 C 290.835938 95.332031 289.898438 98.828125 287.164062 100.40625 Z M 305.160156 153.816406 C 305.160156 156.976562 302.601562 159.535156 299.441406 159.535156 L 278.109375 159.535156 C 274.953125 159.535156 272.394531 156.976562 272.394531 153.816406 C 272.394531 150.65625 274.953125 148.097656 278.109375 148.097656 L 299.441406 148.097656 C 302.597656 148.097656 305.160156 150.65625 305.160156 153.816406 Z M 120.601562 54.394531 C 119.023438 51.660156 119.964844 48.164062 122.699219 46.582031 C 125.433594 45.003906 128.929688 45.945312 130.507812 48.679688 L 141.175781 67.148438 C 142.753906 69.882812 141.8125 73.382812 139.082031 74.960938 C 138.179688 75.480469 137.199219 75.730469 136.226562 75.730469 C 134.25 75.730469 132.328125 74.707031 131.269531 72.871094 Z M 101.050781 110.207031 C 100.078125 110.207031 99.097656 109.957031 98.199219 109.4375 L 79.726562 98.769531 C 76.992188 97.191406 76.054688 93.691406 77.632812 90.960938 C 79.210938 88.226562 82.710938 87.289062 85.441406 88.863281 L 103.914062 99.53125 C 106.648438 101.109375 107.582031 104.609375 106.007812 107.339844 C 104.949219 109.179688 103.027344 110.207031 101.050781 110.207031 Z M 93.554688 151.929688 C 93.554688 155.089844 91 157.648438 87.839844 157.648438 L 66.507812 157.648438 C 63.347656 157.648438 60.792969 155.089844 60.792969 151.929688 C 60.792969 148.769531 63.347656 146.210938 66.507812 146.210938 L 87.839844 146.210938 C 90.992188 146.210938 93.554688 148.773438 93.554688 151.929688 Z M 93.554688 151.929688 " fill-opacity="1" fill-rule="nonzero"/></g><g transform="matrix(1, 0, 0, 1, 50, 136)"><g clip-path="url(#34c40fd095)"><path fill="#f1f1f1" d="M 1.078125 1.03125 L 273.902344 1.03125 L 273.902344 73.640625 L 1.078125 73.640625 L 1.078125 1.03125 " fill-opacity="1" fill-rule="nonzero"/><g fill="#2e2420" fill-opacity="1"><g transform="translate(2.145771, 56.227809)"><g><path d="M 13.515625 0 L 0.984375 -38.109375 L 10.046875 -38.109375 L 19 -7.046875 L 19.75 -7.046875 L 28.6875 -38.109375 L 37.703125 -38.109375 L 25.0625 0 Z M 13.515625 0 "/></g></g></g><g fill="#2e2420" fill-opacity="1"><g transform="translate(37.359314, 56.227809)"><g><path d="M 17.5 0.8125 C 14.457031 0.8125 11.78125 0.207031 9.46875 -1 C 7.15625 -2.21875 5.34375 -4.007812 4.03125 -6.375 C 2.726562 -8.75 2.078125 -11.703125 2.078125 -15.234375 C 2.078125 -18.773438 2.738281 -21.71875 4.0625 -24.0625 C 5.394531 -26.414062 7.210938 -28.179688 9.515625 -29.359375 C 11.828125 -30.535156 14.46875 -31.125 17.4375 -31.125 C 20.476562 -31.125 23.148438 -30.523438 25.453125 -29.328125 C 27.765625 -28.140625 29.582031 -26.359375 30.90625 -23.984375 C 32.238281 -21.617188 32.90625 -18.664062 32.90625 -15.125 C 32.90625 -11.507812 32.234375 -8.523438 30.890625 -6.171875 C 29.546875 -3.828125 27.695312 -2.078125 25.34375 -0.921875 C 23 0.234375 20.382812 0.8125 17.5 0.8125 Z M 17.71875 -5.375 C 18.644531 -5.375 19.507812 -5.523438 20.3125 -5.828125 C 21.125 -6.140625 21.847656 -6.648438 22.484375 -7.359375 C 23.117188 -8.066406 23.617188 -9.023438 23.984375 -10.234375 C 24.347656 -11.453125 24.53125 -12.929688 24.53125 -14.671875 C 24.53125 -16.515625 24.328125 -18.070312 23.921875 -19.34375 C 23.523438 -20.613281 22.988281 -21.640625 22.3125 -22.421875 C 21.632812 -23.210938 20.851562 -23.78125 19.96875 -24.125 C 19.082031 -24.476562 18.160156 -24.65625 17.203125 -24.65625 C 16.316406 -24.65625 15.457031 -24.5 14.625 -24.1875 C 13.800781 -23.882812 13.082031 -23.375 12.46875 -22.65625 C 11.851562 -21.945312 11.351562 -20.992188 10.96875 -19.796875 C 10.582031 -18.609375 10.390625 -17.128906 10.390625 -15.359375 C 10.390625 -13.515625 10.582031 -11.957031 10.96875 -10.6875 C 11.351562 -9.414062 11.890625 -8.382812 12.578125 -7.59375 C 13.273438 -6.800781 14.066406 -6.234375 14.953125 -5.890625 C 15.835938 -5.546875 16.757812 -5.375 17.71875 -5.375 Z M 17.71875 -5.375 "/></g></g></g><g fill="#2e2420" fill-opacity="1"><g transform="translate(68.935975, 56.227809)"><g><path d="M 17.71875 0.8125 C 15.101562 0.8125 12.8125 0.425781 10.84375 -0.34375 C 8.882812 -1.113281 7.257812 -2.191406 5.96875 -3.578125 C 4.6875 -4.960938 3.71875 -6.609375 3.0625 -8.515625 C 2.40625 -10.421875 2.078125 -12.507812 2.078125 -14.78125 C 2.078125 -17.164062 2.40625 -19.347656 3.0625 -21.328125 C 3.71875 -23.316406 4.695312 -25.039062 6 -26.5 C 7.3125 -27.957031 8.925781 -29.09375 10.84375 -29.90625 C 12.769531 -30.71875 14.96875 -31.125 17.4375 -31.125 C 19.320312 -31.125 21.015625 -30.878906 22.515625 -30.390625 C 24.015625 -29.910156 25.320312 -29.238281 26.4375 -28.375 C 27.550781 -27.507812 28.460938 -26.46875 29.171875 -25.25 C 29.890625 -24.039062 30.363281 -22.6875 30.59375 -21.1875 L 22.984375 -18.875 C 22.867188 -20.113281 22.550781 -21.164062 22.03125 -22.03125 C 21.507812 -22.894531 20.820312 -23.535156 19.96875 -23.953125 C 19.125 -24.378906 18.144531 -24.59375 17.03125 -24.59375 C 16.101562 -24.59375 15.242188 -24.410156 14.453125 -24.046875 C 13.671875 -23.679688 12.976562 -23.125 12.375 -22.375 C 11.78125 -21.625 11.3125 -20.648438 10.96875 -19.453125 C 10.625 -18.265625 10.453125 -16.820312 10.453125 -15.125 C 10.453125 -12.851562 10.75 -11.003906 11.34375 -9.578125 C 11.9375 -8.160156 12.789062 -7.113281 13.90625 -6.4375 C 15.03125 -5.757812 16.34375 -5.421875 17.84375 -5.421875 C 19.34375 -5.421875 20.546875 -5.726562 21.453125 -6.34375 C 22.359375 -6.96875 23.03125 -7.75 23.46875 -8.6875 C 23.914062 -9.632812 24.175781 -10.625 24.25 -11.65625 L 31.578125 -10.109375 C 31.421875 -8.609375 31.035156 -7.191406 30.421875 -5.859375 C 29.804688 -4.535156 28.929688 -3.367188 27.796875 -2.359375 C 26.660156 -1.359375 25.253906 -0.578125 23.578125 -0.015625 C 21.910156 0.535156 19.957031 0.8125 17.71875 0.8125 Z M 17.71875 0.8125 "/></g></g></g><g fill="#2e2420" fill-opacity="1"><g transform="translate(98.030303, 56.227809)"><g><path d="M 0.984375 0 L 13.96875 -38.109375 L 26.03125 -38.109375 L 39.09375 0 L 30.015625 0 L 20.4375 -31.515625 L 19.625 -31.515625 L 9.984375 0 Z M 8.25 -7.453125 L 8.25 -13.15625 L 32.96875 -13.15625 L 32.96875 -7.453125 Z M 8.25 -7.453125 "/></g></g></g><g fill="#2e2420" fill-opacity="1"><g transform="translate(134.687052, 56.227809)"><g><path d="M 17.71875 0.8125 C 15.101562 0.8125 12.8125 0.425781 10.84375 -0.34375 C 8.882812 -1.113281 7.257812 -2.191406 5.96875 -3.578125 C 4.6875 -4.960938 3.71875 -6.609375 3.0625 -8.515625 C 2.40625 -10.421875 2.078125 -12.507812 2.078125 -14.78125 C 2.078125 -17.164062 2.40625 -19.347656 3.0625 -21.328125 C 3.71875 -23.316406 4.695312 -25.039062 6 -26.5 C 7.3125 -27.957031 8.925781 -29.09375 10.84375 -29.90625 C 12.769531 -30.71875 14.96875 -31.125 17.4375 -31.125 C 19.320312 -31.125 21.015625 -30.878906 22.515625 -30.390625 C 24.015625 -29.910156 25.320312 -29.238281 26.4375 -28.375 C 27.550781 -27.507812 28.460938 -26.46875 29.171875 -25.25 C 29.890625 -24.039062 30.363281 -22.6875 30.59375 -21.1875 L 22.984375 -18.875 C 22.867188 -20.113281 22.550781 -21.164062 22.03125 -22.03125 C 21.507812 -22.894531 20.820312 -23.535156 19.96875 -23.953125 C 19.125 -24.378906 18.144531 -24.59375 17.03125 -24.59375 C 16.101562 -24.59375 15.242188 -24.410156 14.453125 -24.046875 C 13.671875 -23.679688 12.976562 -23.125 12.375 -22.375 C 11.78125 -21.625 11.3125 -20.648438 10.96875 -19.453125 C 10.625 -18.265625 10.453125 -16.820312 10.453125 -15.125 C 10.453125 -12.851562 10.75 -11.003906 11.34375 -9.578125 C 11.9375 -8.160156 12.789062 -7.113281 13.90625 -6.4375 C 15.03125 -5.757812 16.34375 -5.421875 17.84375 -5.421875 C 19.34375 -5.421875 20.546875 -5.726562 21.453125 -6.34375 C 22.359375 -6.96875 23.03125 -7.75 23.46875 -8.6875 C 23.914062 -9.632812 24.175781 -10.625 24.25 -11.65625 L 31.578125 -10.109375 C 31.421875 -8.609375 31.035156 -7.191406 30.421875 -5.859375 C 29.804688 -4.535156 28.929688 -3.367188 27.796875 -2.359375 C 26.660156 -1.359375 25.253906 -0.578125 23.578125 -0.015625 C 21.910156 0.535156 19.957031 0.8125 17.71875 0.8125 Z M 17.71875 0.8125 "/></g></g></g><g fill="#2e2420" fill-opacity="1"><g transform="translate(163.78138, 56.227809)"><g><path d="M 17.71875 0.8125 C 15.101562 0.8125 12.8125 0.425781 10.84375 -0.34375 C 8.882812 -1.113281 7.257812 -2.191406 5.96875 -3.578125 C 4.6875 -4.960938 3.71875 -6.609375 3.0625 -8.515625 C 2.40625 -10.421875 2.078125 -12.507812 2.078125 -14.78125 C 2.078125 -17.164062 2.40625 -19.347656 3.0625 -21.328125 C 3.71875 -23.316406 4.695312 -25.039062 6 -26.5 C 7.3125 -27.957031 8.925781 -29.09375 10.84375 -29.90625 C 12.769531 -30.71875 14.96875 -31.125 17.4375 -31.125 C 19.320312 -31.125 21.015625 -30.878906 22.515625 -30.390625 C 24.015625 -29.910156 25.320312 -29.238281 26.4375 -28.375 C 27.550781 -27.507812 28.460938 -26.46875 29.171875 -25.25 C 29.890625 -24.039062 30.363281 -22.6875 30.59375 -21.1875 L 22.984375 -18.875 C 22.867188 -20.113281 22.550781 -21.164062 22.03125 -22.03125 C 21.507812 -22.894531 20.820312 -23.535156 19.96875 -23.953125 C 19.125 -24.378906 18.144531 -24.59375 17.03125 -24.59375 C 16.101562 -24.59375 15.242188 -24.410156 14.453125 -24.046875 C 13.671875 -23.679688 12.976562 -23.125 12.375 -22.375 C 11.78125 -21.625 11.3125 -20.648438 10.96875 -19.453125 C 10.625 -18.265625 10.453125 -16.820312 10.453125 -15.125 C 10.453125 -12.851562 10.75 -11.003906 11.34375 -9.578125 C 11.9375 -8.160156 12.789062 -7.113281 13.90625 -6.4375 C 15.03125 -5.757812 16.34375 -5.421875 17.84375 -5.421875 C 19.34375 -5.421875 20.546875 -5.726562 21.453125 -6.34375 C 22.359375 -6.96875 23.03125 -7.75 23.46875 -8.6875 C 23.914062 -9.632812 24.175781 -10.625 24.25 -11.65625 L 31.578125 -10.109375 C 31.421875 -8.609375 31.035156 -7.191406 30.421875 -5.859375 C 29.804688 -4.535156 28.929688 -3.367188 27.796875 -2.359375 C 26.660156 -1.359375 25.253906 -0.578125 23.578125 -0.015625 C 21.910156 0.535156 19.957031 0.8125 17.71875 0.8125 Z M 17.71875 0.8125 "/></g></g></g><g fill="#2e2420" fill-opacity="1"><g transform="translate(192.875708, 56.227809)"><g><path d="M 3.6875 0 L 3.6875 -30.3125 L 12.015625 -30.3125 L 12.015625 0 Z M 7.84375 -34.703125 C 6.226562 -34.703125 4.988281 -35.046875 4.125 -35.734375 C 3.257812 -36.429688 2.828125 -37.414062 2.828125 -38.6875 C 2.828125 -40.03125 3.257812 -41.046875 4.125 -41.734375 C 4.988281 -42.429688 6.226562 -42.78125 7.84375 -42.78125 C 9.5 -42.78125 10.757812 -42.429688 11.625 -41.734375 C 12.5 -41.046875 12.9375 -40.03125 12.9375 -38.6875 C 12.9375 -37.414062 12.5 -36.429688 11.625 -35.734375 C 10.757812 -35.046875 9.5 -34.703125 7.84375 -34.703125 Z M 7.84375 -34.703125 "/></g></g></g><g fill="#2e2420" fill-opacity="1"><g transform="translate(205.171056, 56.227809)"><g><path d="M 17.5 0.8125 C 14.457031 0.8125 11.78125 0.207031 9.46875 -1 C 7.15625 -2.21875 5.34375 -4.007812 4.03125 -6.375 C 2.726562 -8.75 2.078125 -11.703125 2.078125 -15.234375 C 2.078125 -18.773438 2.738281 -21.71875 4.0625 -24.0625 C 5.394531 -26.414062 7.210938 -28.179688 9.515625 -29.359375 C 11.828125 -30.535156 14.46875 -31.125 17.4375 -31.125 C 20.476562 -31.125 23.148438 -30.523438 25.453125 -29.328125 C 27.765625 -28.140625 29.582031 -26.359375 30.90625 -23.984375 C 32.238281 -21.617188 32.90625 -18.664062 32.90625 -15.125 C 32.90625 -11.507812 32.234375 -8.523438 30.890625 -6.171875 C 29.546875 -3.828125 27.695312 -2.078125 25.34375 -0.921875 C 23 0.234375 20.382812 0.8125 17.5 0.8125 Z M 17.71875 -5.375 C 18.644531 -5.375 19.507812 -5.523438 20.3125 -5.828125 C 21.125 -6.140625 21.847656 -6.648438 22.484375 -7.359375 C 23.117188 -8.066406 23.617188 -9.023438 23.984375 -10.234375 C 24.347656 -11.453125 24.53125 -12.929688 24.53125 -14.671875 C 24.53125 -16.515625 24.328125 -18.070312 23.921875 -19.34375 C 23.523438 -20.613281 22.988281 -21.640625 22.3125 -22.421875 C 21.632812 -23.210938 20.851562 -23.78125 19.96875 -24.125 C 19.082031 -24.476562 18.160156 -24.65625 17.203125 -24.65625 C 16.316406 -24.65625 15.457031 -24.5 14.625 -24.1875 C 13.800781 -23.882812 13.082031 -23.375 12.46875 -22.65625 C 11.851562 -21.945312 11.351562 -20.992188 10.96875 -19.796875 C 10.582031 -18.609375 10.390625 -17.128906 10.390625 -15.359375 C 10.390625 -13.515625 10.582031 -11.957031 10.96875 -10.6875 C 11.351562 -9.414062 11.890625 -8.382812 12.578125 -7.59375 C 13.273438 -6.800781 14.066406 -6.234375 14.953125 -5.890625 C 15.835938 -5.546875 16.757812 -5.375 17.71875 -5.375 Z M 20.09375 -34.359375 L 13.6875 -34.359375 L 17.90625 -43.9375 L 26.265625 -43.9375 Z M 20.09375 -34.359375 "/></g></g></g><g fill="#2e2420" fill-opacity="1"><g transform="translate(236.747716, 56.227809)"><g><path d="M 3.6875 0 L 3.6875 -30.3125 L 10.5 -30.3125 L 10.453125 -20.90625 L 11.546875 -20.90625 C 12.046875 -23.40625 12.785156 -25.394531 13.765625 -26.875 C 14.742188 -28.351562 15.9375 -29.429688 17.34375 -30.109375 C 18.75 -30.785156 20.335938 -31.125 22.109375 -31.125 C 24.109375 -31.125 25.753906 -30.765625 27.046875 -30.046875 C 28.335938 -29.335938 29.367188 -28.40625 30.140625 -27.25 C 30.910156 -26.09375 31.488281 -24.832031 31.875 -23.46875 C 32.257812 -22.101562 32.507812 -20.742188 32.625 -19.390625 C 32.738281 -18.046875 32.796875 -16.835938 32.796875 -15.765625 L 32.796875 0 L 24.484375 0 L 24.484375 -14.78125 C 24.484375 -15.507812 24.441406 -16.394531 24.359375 -17.4375 C 24.285156 -18.476562 24.082031 -19.503906 23.75 -20.515625 C 23.425781 -21.535156 22.890625 -22.394531 22.140625 -23.09375 C 21.390625 -23.789062 20.34375 -24.140625 19 -24.140625 C 17.457031 -24.140625 16.175781 -23.664062 15.15625 -22.71875 C 14.132812 -21.769531 13.351562 -20.488281 12.8125 -18.875 C 12.28125 -17.257812 12.015625 -15.453125 12.015625 -13.453125 L 12.015625 0 Z M 3.6875 0 "/></g></g></g></g></g><g transform="matrix(1, 0, 0, 1, 102, 239)"><g clip-path="url(#f1c0ae365a)"><g clip-path="url(#dc895d2a8e)"><path fill="#84d6bb" d="M 151.164062 1.773438 C 151.550781 1.660156 151.941406 1.585938 152.339844 1.550781 C 152.738281 1.511719 153.140625 1.515625 153.539062 1.554688 C 153.9375 1.59375 154.328125 1.671875 154.710938 1.789062 C 155.09375 1.902344 155.464844 2.054688 155.820312 2.238281 C 156.175781 2.425781 156.507812 2.644531 156.820312 2.894531 C 157.136719 3.144531 157.421875 3.421875 157.679688 3.726562 C 157.941406 4.03125 158.167969 4.359375 158.367188 4.707031 C 158.5625 5.058594 158.726562 5.421875 158.851562 5.804688 C 159.21875 7.277344 159.542969 8.761719 159.828125 10.253906 C 160.109375 11.75 160.347656 13.25 160.546875 14.757812 C 160.746094 16.261719 160.898438 17.773438 161.011719 19.289062 C 161.121094 20.804688 161.191406 22.324219 161.214844 23.84375 C 161.242188 25.363281 161.222656 26.882812 161.160156 28.402344 C 161.101562 29.921875 160.996094 31.4375 160.851562 32.949219 C 160.703125 34.460938 160.511719 35.96875 160.28125 37.472656 C 160.046875 38.972656 159.773438 40.46875 159.453125 41.953125 C 159.136719 43.441406 158.777344 44.917969 158.375 46.382812 C 157.972656 47.847656 157.53125 49.300781 157.046875 50.742188 C 156.5625 52.183594 156.039062 53.609375 155.472656 55.019531 C 154.90625 56.429688 154.304688 57.824219 153.660156 59.203125 C 153.015625 60.578125 152.332031 61.933594 151.609375 63.273438 C 150.890625 64.609375 150.128906 65.925781 149.335938 67.222656 C 148.539062 68.515625 147.707031 69.789062 146.835938 71.035156 C 145.96875 72.28125 145.066406 73.503906 144.128906 74.699219 C 143.191406 75.898438 142.21875 77.066406 141.214844 78.207031 C 140.210938 79.347656 139.175781 80.457031 138.105469 81.539062 C 137.039062 82.621094 135.941406 83.671875 134.816406 84.691406 C 133.6875 85.714844 132.53125 86.699219 131.351562 87.652344 C 130.167969 88.609375 128.957031 89.527344 127.722656 90.414062 C 126.488281 91.296875 125.226562 92.148438 123.941406 92.960938 C 122.660156 93.777344 121.355469 94.550781 120.027344 95.292969 C 118.699219 96.03125 117.351562 96.734375 115.984375 97.394531 C 114.613281 98.058594 113.230469 98.683594 111.828125 99.265625 C 110.421875 99.851562 109.003906 100.394531 107.570312 100.898438 C 106.136719 101.402344 104.6875 101.867188 103.230469 102.289062 C 101.769531 102.707031 100.296875 103.089844 98.816406 103.425781 C 97.332031 103.765625 95.84375 104.058594 94.34375 104.3125 C 92.847656 104.566406 91.339844 104.777344 89.832031 104.945312 C 88.320312 105.113281 86.804688 105.238281 85.289062 105.320312 C 83.769531 105.402344 82.25 105.4375 80.730469 105.433594 C 79.210938 105.429688 77.691406 105.382812 76.175781 105.292969 C 74.660156 105.199219 73.144531 105.066406 71.636719 104.890625 C 70.125 104.714844 68.621094 104.492188 67.125 104.230469 C 65.628906 103.96875 64.140625 103.664062 62.660156 103.316406 C 61.179688 102.972656 59.710938 102.582031 58.253906 102.152344 C 56.796875 101.722656 55.351562 101.25 53.921875 100.738281 C 52.488281 100.226562 51.074219 99.671875 49.675781 99.082031 C 48.273438 98.488281 46.894531 97.855469 45.53125 97.183594 C 44.164062 96.511719 42.820312 95.804688 41.5 95.054688 C 40.175781 94.308594 38.875 93.523438 37.59375 92.703125 C 36.316406 91.882812 35.0625 91.023438 33.832031 90.132812 C 32.601562 89.238281 31.398438 88.3125 30.222656 87.351562 C 29.042969 86.390625 27.894531 85.394531 26.773438 84.367188 C 25.652344 83.34375 24.5625 82.285156 23.5 81.195312 C 22.441406 80.109375 21.410156 78.988281 20.414062 77.84375 C 19.414062 76.695312 18.453125 75.523438 17.519531 74.320312 C 16.589844 73.117188 15.695312 71.890625 14.832031 70.636719 C 13.972656 69.386719 13.148438 68.109375 12.359375 66.808594 C 11.570312 65.511719 10.820312 64.191406 10.105469 62.847656 C 9.394531 61.507812 8.71875 60.144531 8.082031 58.765625 C 7.445312 57.382812 6.851562 55.984375 6.292969 54.570312 C 5.738281 53.15625 5.222656 51.730469 4.746094 50.285156 C 4.269531 48.839844 3.835938 47.386719 3.445312 45.917969 C 3.050781 44.449219 2.699219 42.96875 2.390625 41.480469 C 2.082031 39.992188 1.816406 38.496094 1.59375 36.996094 C 1.367188 35.492188 1.1875 33.984375 1.050781 32.46875 C 0.910156 30.957031 0.816406 29.4375 0.765625 27.917969 C 0.714844 26.402344 0.703125 24.882812 0.738281 23.363281 C 0.773438 21.84375 0.851562 20.324219 0.972656 18.808594 C 1.09375 17.292969 1.253906 15.785156 1.460938 14.277344 C 1.667969 12.773438 1.917969 11.273438 2.210938 9.78125 C 2.5 8.289062 2.835938 6.808594 3.210938 5.335938 C 3.339844 4.957031 3.503906 4.59375 3.703125 4.246094 C 3.902344 3.894531 4.132812 3.570312 4.394531 3.265625 C 4.65625 2.964844 4.945312 2.6875 5.257812 2.4375 C 5.574219 2.191406 5.90625 1.972656 6.265625 1.789062 C 6.621094 1.605469 6.992188 1.457031 7.375 1.34375 C 7.761719 1.230469 8.152344 1.15625 8.550781 1.121094 C 8.949219 1.082031 9.347656 1.082031 9.746094 1.121094 C 10.148438 1.160156 10.539062 1.238281 10.921875 1.351562 L 22.777344 5.382812 C 23.1875 5.5 23.582031 5.652344 23.960938 5.847656 C 24.339844 6.042969 24.695312 6.273438 25.027344 6.539062 C 25.359375 6.808594 25.660156 7.105469 25.933594 7.433594 C 26.203125 7.761719 26.4375 8.117188 26.636719 8.492188 C 26.835938 8.867188 26.996094 9.261719 27.113281 9.671875 C 27.234375 10.078125 27.308594 10.496094 27.34375 10.921875 C 27.375 11.34375 27.367188 11.769531 27.316406 12.191406 C 27.261719 12.613281 27.167969 13.027344 27.03125 13.429688 C 26.8125 14.433594 26.621094 15.441406 26.460938 16.453125 C 26.296875 17.464844 26.164062 18.480469 26.058594 19.5 C 25.953125 20.519531 25.875 21.542969 25.828125 22.566406 C 25.777344 23.589844 25.757812 24.613281 25.765625 25.640625 C 25.777344 26.664062 25.8125 27.6875 25.878906 28.710938 C 25.945312 29.734375 26.039062 30.753906 26.160156 31.773438 C 26.28125 32.792969 26.433594 33.804688 26.613281 34.8125 C 26.792969 35.824219 26.996094 36.828125 27.234375 37.824219 C 27.46875 38.824219 27.730469 39.8125 28.019531 40.796875 C 28.308594 41.78125 28.628906 42.753906 28.972656 43.722656 C 29.316406 44.6875 29.6875 45.640625 30.085938 46.585938 C 30.480469 47.53125 30.90625 48.464844 31.355469 49.386719 C 31.804688 50.308594 32.277344 51.214844 32.777344 52.109375 C 33.277344 53.007812 33.804688 53.886719 34.351562 54.753906 C 34.902344 55.617188 35.476562 56.46875 36.070312 57.300781 C 36.667969 58.136719 37.285156 58.953125 37.929688 59.75 C 38.570312 60.550781 39.234375 61.332031 39.921875 62.09375 C 40.605469 62.855469 41.3125 63.597656 42.039062 64.320312 C 42.765625 65.042969 43.511719 65.746094 44.277344 66.429688 C 45.042969 67.109375 45.828125 67.769531 46.632812 68.40625 C 47.433594 69.042969 48.253906 69.660156 49.089844 70.25 C 49.925781 70.84375 50.78125 71.410156 51.648438 71.957031 C 52.515625 72.5 53.402344 73.019531 54.296875 73.515625 C 55.195312 74.011719 56.105469 74.480469 57.03125 74.925781 C 57.953125 75.371094 58.890625 75.789062 59.835938 76.183594 C 60.785156 76.574219 61.742188 76.941406 62.707031 77.28125 C 63.675781 77.617188 64.652344 77.929688 65.636719 78.214844 C 66.621094 78.5 67.613281 78.757812 68.613281 78.988281 C 69.613281 79.214844 70.617188 79.417969 71.628906 79.589844 C 72.636719 79.765625 73.652344 79.910156 74.671875 80.027344 C 75.6875 80.144531 76.710938 80.234375 77.734375 80.292969 C 78.757812 80.351562 79.78125 80.386719 80.808594 80.386719 C 81.832031 80.390625 82.855469 80.367188 83.878906 80.3125 C 84.902344 80.257812 85.925781 80.175781 86.945312 80.0625 C 87.964844 79.953125 88.980469 79.8125 89.992188 79.648438 C 91 79.480469 92.007812 79.285156 93.007812 79.058594 C 94.007812 78.835938 95.003906 78.585938 95.988281 78.304688 C 96.976562 78.027344 97.953125 77.722656 98.921875 77.386719 C 99.894531 77.054688 100.851562 76.695312 101.800781 76.308594 C 102.75 75.921875 103.6875 75.507812 104.617188 75.070312 C 105.542969 74.628906 106.457031 74.164062 107.355469 73.675781 C 108.257812 73.1875 109.144531 72.671875 110.015625 72.132812 C 110.886719 71.59375 111.742188 71.03125 112.582031 70.441406 C 113.421875 69.855469 114.246094 69.246094 115.054688 68.613281 C 115.859375 67.980469 116.648438 67.324219 117.417969 66.648438 C 118.1875 65.972656 118.9375 65.273438 119.671875 64.554688 C 120.402344 63.835938 121.113281 63.097656 121.800781 62.339844 C 122.492188 61.582031 123.160156 60.804688 123.808594 60.007812 C 124.453125 59.214844 125.078125 58.402344 125.679688 57.570312 C 126.28125 56.742188 126.859375 55.894531 127.414062 55.03125 C 127.96875 54.167969 128.496094 53.292969 129.003906 52.398438 C 129.507812 51.507812 129.988281 50.601562 130.445312 49.683594 C 130.898438 48.765625 131.328125 47.835938 131.730469 46.890625 C 132.132812 45.949219 132.511719 44.996094 132.859375 44.03125 C 133.210938 43.070312 133.535156 42.097656 133.832031 41.117188 C 134.125 40.132812 134.394531 39.144531 134.636719 38.148438 C 134.875 37.152344 135.089844 36.148438 135.273438 35.140625 C 135.457031 34.132812 135.617188 33.121094 135.742188 32.101562 C 135.871094 31.085938 135.972656 30.066406 136.042969 29.042969 C 136.117188 28.019531 136.160156 26.996094 136.175781 25.972656 C 136.1875 24.945312 136.175781 23.921875 136.132812 22.898438 C 136.089844 21.871094 136.019531 20.851562 135.917969 19.828125 C 135.820312 18.808594 135.691406 17.792969 135.535156 16.78125 C 135.378906 15.765625 135.195312 14.757812 134.984375 13.753906 C 134.851562 13.351562 134.757812 12.9375 134.707031 12.515625 C 134.65625 12.089844 134.648438 11.667969 134.6875 11.242188 C 134.722656 10.820312 134.800781 10.402344 134.921875 9.996094 C 135.042969 9.585938 135.207031 9.195312 135.40625 8.820312 C 135.609375 8.441406 135.84375 8.09375 136.117188 7.765625 C 136.390625 7.4375 136.695312 7.140625 137.027344 6.875 C 137.359375 6.613281 137.71875 6.382812 138.097656 6.191406 C 138.476562 6 138.875 5.847656 139.285156 5.734375 Z M 151.164062 1.773438 " fill-opacity="1" fill-rule="nonzero"/></g><g fill="#2e2420" fill-opacity="1"><g transform="translate(10.150321, 2.184318)"><g><path d="M -0.625 2.796875 L 1.515625 3.265625 L 0.65625 7.1875 C 0.539062 7.707031 0.519531 8.210938 0.59375 8.703125 C 0.675781 9.191406 0.863281 9.632812 1.15625 10.03125 C 1.445312 10.4375 1.863281 10.785156 2.40625 11.078125 C 2.945312 11.378906 3.613281 11.617188 4.40625 11.796875 C 5.175781 11.960938 5.867188 12.03125 6.484375 12 C 7.097656 11.96875 7.632812 11.828125 8.09375 11.578125 C 8.550781 11.335938 8.929688 10.976562 9.234375 10.5 C 9.546875 10.03125 9.78125 9.429688 9.9375 8.703125 L 10.6875 5.296875 L 12.828125 5.765625 L 12.09375 9.109375 C 11.738281 10.691406 11.1875 11.929688 10.4375 12.828125 C 9.6875 13.734375 8.765625 14.3125 7.671875 14.5625 C 6.578125 14.820312 5.335938 14.800781 3.953125 14.5 C 2.890625 14.257812 2 13.929688 1.28125 13.515625 C 0.570312 13.097656 0.0078125 12.617188 -0.40625 12.078125 C -0.832031 11.546875 -1.148438 10.976562 -1.359375 10.375 C -1.566406 9.769531 -1.671875 9.160156 -1.671875 8.546875 C -1.679688 7.929688 -1.625 7.34375 -1.5 6.78125 Z M -0.34375 1.53125 L 13.109375 4.5 L 12.546875 7.078125 L -0.90625 4.109375 Z M -0.34375 1.53125 "/></g></g></g><g fill="#2e2420" fill-opacity="1"><g transform="translate(6.714505, 21.459152)"><g><path d="M -0.0625 6.375 C -0.09375 5.488281 0.00390625 4.695312 0.234375 4 C 0.460938 3.3125 0.804688 2.722656 1.265625 2.234375 C 1.734375 1.742188 2.304688 1.363281 2.984375 1.09375 C 3.660156 0.832031 4.429688 0.6875 5.296875 0.65625 C 6.160156 0.632812 6.953125 0.726562 7.671875 0.9375 C 8.390625 1.15625 9.023438 1.484375 9.578125 1.921875 C 10.128906 2.367188 10.5625 2.914062 10.875 3.5625 C 11.1875 4.21875 11.359375 4.96875 11.390625 5.8125 C 11.410156 6.613281 11.296875 7.332031 11.046875 7.96875 C 10.804688 8.613281 10.429688 9.15625 9.921875 9.59375 C 9.410156 10.039062 8.773438 10.375 8.015625 10.59375 C 7.253906 10.820312 6.375 10.921875 5.375 10.890625 L 5 2.375 L 6.546875 2.328125 L 6.828125 9.28125 L 5.953125 8.40625 C 6.734375 8.46875 7.367188 8.390625 7.859375 8.171875 C 8.359375 7.960938 8.722656 7.65625 8.953125 7.25 C 9.191406 6.851562 9.304688 6.40625 9.296875 5.90625 C 9.273438 5.332031 9.109375 4.835938 8.796875 4.421875 C 8.484375 4.015625 8.039062 3.703125 7.46875 3.484375 C 6.90625 3.273438 6.21875 3.179688 5.40625 3.203125 C 4.195312 3.242188 3.304688 3.535156 2.734375 4.078125 C 2.160156 4.628906 1.890625 5.378906 1.921875 6.328125 C 1.929688 6.734375 1.992188 7.082031 2.109375 7.375 C 2.222656 7.664062 2.367188 7.898438 2.546875 8.078125 C 2.722656 8.265625 2.925781 8.410156 3.15625 8.515625 C 3.394531 8.617188 3.632812 8.703125 3.875 8.765625 L 3.46875 11.09375 C 2.96875 10.988281 2.503906 10.820312 2.078125 10.59375 C 1.648438 10.375 1.28125 10.066406 0.96875 9.671875 C 0.65625 9.285156 0.410156 8.820312 0.234375 8.28125 C 0.0546875 7.75 -0.0390625 7.113281 -0.0625 6.375 Z M -0.0625 6.375 "/></g></g></g><g fill="#2e2420" fill-opacity="1"><g transform="translate(7.871155, 38.431498)"><g><path d="M 1.203125 5.578125 C 1.015625 4.859375 0.914062 4.191406 0.90625 3.578125 C 0.894531 2.972656 0.96875 2.429688 1.125 1.953125 C 1.28125 1.484375 1.515625 1.078125 1.828125 0.734375 C 2.148438 0.390625 2.546875 0.128906 3.015625 -0.046875 L 4.25 1.78125 C 3.894531 1.914062 3.601562 2.140625 3.375 2.453125 C 3.144531 2.765625 3.007812 3.15625 2.96875 3.625 C 2.925781 4.09375 2.988281 4.628906 3.15625 5.234375 C 3.332031 5.890625 3.570312 6.375 3.875 6.6875 C 4.175781 7 4.523438 7.109375 4.921875 7.015625 C 5.203125 6.929688 5.398438 6.765625 5.515625 6.515625 C 5.628906 6.273438 5.691406 5.945312 5.703125 5.53125 C 5.722656 5.125 5.71875 4.644531 5.6875 4.09375 C 5.644531 3.550781 5.628906 3.007812 5.640625 2.46875 C 5.648438 1.9375 5.71875 1.425781 5.84375 0.9375 C 5.96875 0.445312 6.1875 0.0234375 6.5 -0.328125 C 6.8125 -0.691406 7.257812 -0.953125 7.84375 -1.109375 C 8.488281 -1.273438 9.097656 -1.25 9.671875 -1.03125 C 10.242188 -0.8125 10.75 -0.414062 11.1875 0.15625 C 11.625 0.738281 11.960938 1.492188 12.203125 2.421875 C 12.429688 3.296875 12.507812 4.085938 12.4375 4.796875 C 12.363281 5.503906 12.148438 6.117188 11.796875 6.640625 C 11.453125 7.160156 10.972656 7.550781 10.359375 7.8125 L 9.171875 5.875 C 9.535156 5.738281 9.820312 5.53125 10.03125 5.25 C 10.238281 4.96875 10.363281 4.628906 10.40625 4.234375 C 10.445312 3.847656 10.40625 3.410156 10.28125 2.921875 C 10.113281 2.296875 9.878906 1.835938 9.578125 1.546875 C 9.273438 1.265625 8.941406 1.171875 8.578125 1.265625 C 8.285156 1.335938 8.078125 1.503906 7.953125 1.765625 C 7.835938 2.035156 7.78125 2.378906 7.78125 2.796875 C 7.78125 3.222656 7.785156 3.707031 7.796875 4.25 C 7.835938 4.8125 7.851562 5.363281 7.84375 5.90625 C 7.84375 6.445312 7.78125 6.945312 7.65625 7.40625 C 7.53125 7.875 7.316406 8.273438 7.015625 8.609375 C 6.710938 8.953125 6.269531 9.203125 5.6875 9.359375 C 5 9.546875 4.359375 9.519531 3.765625 9.28125 C 3.171875 9.039062 2.660156 8.601562 2.234375 7.96875 C 1.804688 7.34375 1.460938 6.546875 1.203125 5.578125 Z M 1.203125 5.578125 "/></g></g></g><g fill="#2e2420" fill-opacity="1"><g transform="translate(12.537129, 54.000035)"><g><path d="M 2.703125 5.75 C 2.265625 4.90625 2.007812 4.113281 1.9375 3.375 C 1.863281 2.632812 1.945312 1.953125 2.1875 1.328125 C 2.4375 0.703125 2.8125 0.128906 3.3125 -0.390625 C 3.8125 -0.921875 4.410156 -1.367188 5.109375 -1.734375 C 5.859375 -2.128906 6.597656 -2.378906 7.328125 -2.484375 C 8.066406 -2.597656 8.773438 -2.578125 9.453125 -2.421875 C 10.140625 -2.273438 10.765625 -1.972656 11.328125 -1.515625 C 11.898438 -1.054688 12.390625 -0.4375 12.796875 0.34375 C 13.109375 0.9375 13.3125 1.507812 13.40625 2.0625 C 13.507812 2.613281 13.507812 3.132812 13.40625 3.625 C 13.3125 4.113281 13.128906 4.566406 12.859375 4.984375 C 12.585938 5.410156 12.242188 5.789062 11.828125 6.125 L 10.03125 4.296875 C 10.40625 4.066406 10.691406 3.789062 10.890625 3.46875 C 11.085938 3.144531 11.191406 2.789062 11.203125 2.40625 C 11.210938 2.03125 11.109375 1.640625 10.890625 1.234375 C 10.710938 0.890625 10.476562 0.609375 10.1875 0.390625 C 9.90625 0.171875 9.578125 0.0351562 9.203125 -0.015625 C 8.835938 -0.078125 8.421875 -0.0664062 7.953125 0.015625 C 7.484375 0.109375 6.972656 0.296875 6.421875 0.578125 C 5.703125 0.953125 5.148438 1.367188 4.765625 1.828125 C 4.390625 2.296875 4.175781 2.78125 4.125 3.28125 C 4.082031 3.789062 4.207031 4.316406 4.5 4.859375 C 4.75 5.347656 5.054688 5.695312 5.421875 5.90625 C 5.785156 6.125 6.164062 6.226562 6.5625 6.21875 C 6.96875 6.21875 7.363281 6.140625 7.75 5.984375 L 8.390625 8.28125 C 7.859375 8.5 7.328125 8.613281 6.796875 8.625 C 6.265625 8.632812 5.753906 8.535156 5.265625 8.328125 C 4.773438 8.117188 4.316406 7.804688 3.890625 7.390625 C 3.460938 6.972656 3.066406 6.425781 2.703125 5.75 Z M 2.703125 5.75 "/></g></g></g><g fill="#2e2420" fill-opacity="1"><g transform="translate(20.793913, 68.604303)"><g><path d="M 3.09375 3.96875 C 2.738281 3.5625 2.484375 3.148438 2.328125 2.734375 C 2.171875 2.328125 2.109375 1.914062 2.140625 1.5 C 2.171875 1.082031 2.285156 0.660156 2.484375 0.234375 C 2.679688 -0.179688 2.953125 -0.601562 3.296875 -1.03125 C 3.648438 -1.457031 4.070312 -1.882812 4.5625 -2.3125 L 9.0625 -6.234375 L 10.796875 -4.21875 L 6.734375 -0.6875 C 6.472656 -0.457031 6.195312 -0.195312 5.90625 0.09375 C 5.625 0.394531 5.382812 0.710938 5.1875 1.046875 C 4.988281 1.390625 4.890625 1.742188 4.890625 2.109375 C 4.890625 2.484375 5.050781 2.851562 5.375 3.21875 C 5.644531 3.53125 5.953125 3.726562 6.296875 3.8125 C 6.648438 3.90625 7.035156 3.914062 7.453125 3.84375 C 7.878906 3.769531 8.320312 3.613281 8.78125 3.375 C 9.25 3.144531 9.71875 2.847656 10.1875 2.484375 L 13.859375 -0.71875 L 15.59375 1.28125 L 10.78125 5.46875 L 7.359375 8.453125 L 5.921875 6.796875 L 8.609375 4.515625 L 8.375 4.25 C 7.59375 4.695312 6.878906 4.984375 6.234375 5.109375 C 5.597656 5.234375 5.023438 5.195312 4.515625 5 C 4.015625 4.8125 3.539062 4.46875 3.09375 3.96875 Z M 3.09375 3.96875 "/></g></g></g><g fill="#2e2420" fill-opacity="1"><g transform="translate(32.953135, 81.624117)"><g><path d="M 6.140625 4.625 C 5.566406 4.21875 5.15625 3.757812 4.90625 3.25 C 4.65625 2.738281 4.546875 2.1875 4.578125 1.59375 C 4.617188 1.007812 4.78125 0.382812 5.0625 -0.28125 L 4.765625 -0.484375 L 3 2.09375 L 1.171875 0.8125 L 4.203125 -3.515625 L 9.640625 -11.296875 L 11.8125 -9.78125 L 9.828125 -6.953125 C 9.628906 -6.660156 9.394531 -6.363281 9.125 -6.0625 C 8.863281 -5.757812 8.585938 -5.457031 8.296875 -5.15625 C 8.003906 -4.863281 7.695312 -4.566406 7.375 -4.265625 L 7.71875 -4.015625 C 8.257812 -4.484375 8.800781 -4.835938 9.34375 -5.078125 C 9.882812 -5.328125 10.441406 -5.429688 11.015625 -5.390625 C 11.585938 -5.347656 12.15625 -5.128906 12.71875 -4.734375 C 13.457031 -4.210938 13.960938 -3.570312 14.234375 -2.8125 C 14.503906 -2.050781 14.539062 -1.21875 14.34375 -0.3125 C 14.144531 0.59375 13.707031 1.53125 13.03125 2.5 C 12.375 3.445312 11.65625 4.164062 10.875 4.65625 C 10.09375 5.15625 9.296875 5.40625 8.484375 5.40625 C 7.679688 5.414062 6.898438 5.15625 6.140625 4.625 Z M 6.6875 2.34375 C 7.125 2.644531 7.582031 2.785156 8.0625 2.765625 C 8.539062 2.742188 9.015625 2.578125 9.484375 2.265625 C 9.953125 1.953125 10.390625 1.507812 10.796875 0.9375 C 11.203125 0.351562 11.472656 -0.210938 11.609375 -0.765625 C 11.753906 -1.316406 11.757812 -1.820312 11.625 -2.28125 C 11.5 -2.75 11.222656 -3.132812 10.796875 -3.4375 C 10.492188 -3.644531 10.175781 -3.773438 9.84375 -3.828125 C 9.507812 -3.890625 9.175781 -3.882812 8.84375 -3.8125 C 8.519531 -3.738281 8.210938 -3.625 7.921875 -3.46875 C 7.640625 -3.320312 7.375 -3.144531 7.125 -2.9375 C 6.875 -2.726562 6.671875 -2.503906 6.515625 -2.265625 L 6.328125 -2 C 6.117188 -1.707031 5.953125 -1.363281 5.828125 -0.96875 C 5.703125 -0.582031 5.632812 -0.1875 5.625 0.21875 C 5.625 0.625 5.707031 1.015625 5.875 1.390625 C 6.039062 1.765625 6.3125 2.082031 6.6875 2.34375 Z M 6.6875 2.34375 "/></g></g></g><g fill="#2e2420" fill-opacity="1"><g transform="translate(48.113062, 91.281791)"><g><path d="M 1.3125 0.546875 L 3.421875 -4.515625 L 5.5 -9.53125 L 7.5625 -8.671875 L 6.03125 -5.15625 L 6.390625 -5 C 6.847656 -5.8125 7.3125 -6.445312 7.78125 -6.90625 C 8.25 -7.363281 8.757812 -7.640625 9.3125 -7.734375 C 9.875 -7.828125 10.472656 -7.742188 11.109375 -7.484375 C 11.234375 -7.429688 11.363281 -7.359375 11.5 -7.265625 C 11.644531 -7.179688 11.800781 -7.078125 11.96875 -6.953125 L 10.78125 -4.421875 C 10.625 -4.597656 10.441406 -4.75 10.234375 -4.875 C 10.035156 -5.007812 9.847656 -5.109375 9.671875 -5.171875 C 9.160156 -5.390625 8.671875 -5.4375 8.203125 -5.3125 C 7.742188 -5.195312 7.300781 -4.945312 6.875 -4.5625 C 6.445312 -4.175781 6.050781 -3.675781 5.6875 -3.0625 L 3.765625 1.5625 Z M 1.3125 0.546875 "/></g></g></g><g fill="#2e2420" fill-opacity="1"><g transform="translate(60.896078, 96.2156)"><g><path d="M 6.203125 1.4375 C 5.328125 1.28125 4.578125 1.015625 3.953125 0.640625 C 3.335938 0.265625 2.835938 -0.195312 2.453125 -0.75 C 2.078125 -1.3125 1.832031 -1.953125 1.71875 -2.671875 C 1.601562 -3.390625 1.625 -4.171875 1.78125 -5.015625 C 1.945312 -5.867188 2.210938 -6.625 2.578125 -7.28125 C 2.941406 -7.9375 3.398438 -8.484375 3.953125 -8.921875 C 4.503906 -9.367188 5.132812 -9.675781 5.84375 -9.84375 C 6.550781 -10.007812 7.316406 -10.015625 8.140625 -9.859375 C 8.929688 -9.710938 9.609375 -9.445312 10.171875 -9.0625 C 10.742188 -8.675781 11.1875 -8.1875 11.5 -7.59375 C 11.820312 -7 12.007812 -6.304688 12.0625 -5.515625 C 12.125 -4.734375 12.03125 -3.851562 11.78125 -2.875 L 3.390625 -4.375 L 3.6875 -5.890625 L 10.515625 -4.671875 L 9.484375 -3.984375 C 9.710938 -4.734375 9.773438 -5.375 9.671875 -5.90625 C 9.578125 -6.4375 9.359375 -6.859375 9.015625 -7.171875 C 8.679688 -7.492188 8.269531 -7.695312 7.78125 -7.78125 C 7.21875 -7.894531 6.695312 -7.84375 6.21875 -7.625 C 5.75 -7.414062 5.347656 -7.054688 5.015625 -6.546875 C 4.679688 -6.035156 4.441406 -5.378906 4.296875 -4.578125 C 4.066406 -3.390625 4.15625 -2.457031 4.5625 -1.78125 C 4.976562 -1.101562 5.65625 -0.675781 6.59375 -0.5 C 6.988281 -0.425781 7.335938 -0.414062 7.640625 -0.46875 C 7.953125 -0.519531 8.21875 -0.609375 8.4375 -0.734375 C 8.65625 -0.867188 8.835938 -1.035156 8.984375 -1.234375 C 9.140625 -1.441406 9.273438 -1.660156 9.390625 -1.890625 L 11.578125 -0.984375 C 11.367188 -0.503906 11.109375 -0.0859375 10.796875 0.265625 C 10.484375 0.628906 10.097656 0.921875 9.640625 1.140625 C 9.191406 1.367188 8.6875 1.507812 8.125 1.5625 C 7.570312 1.625 6.929688 1.582031 6.203125 1.4375 Z M 6.203125 1.4375 "/></g></g></g><g fill="#2e2420" fill-opacity="1"><g transform="translate(77.441429, 98.576283)"><g/></g></g><g fill="#2e2420" fill-opacity="1"><g transform="translate(86.978804, 98.406737)"><g><path d="M 5.234375 -0.515625 C 4.703125 -0.429688 4.210938 -0.429688 3.765625 -0.515625 C 3.328125 -0.597656 2.941406 -0.769531 2.609375 -1.03125 C 2.285156 -1.300781 2.019531 -1.664062 1.8125 -2.125 C 1.613281 -2.582031 1.46875 -3.144531 1.375 -3.8125 L 0.625 -9 L -0.953125 -8.765625 L -1.203125 -10.8125 L -0.21875 -10.96875 C 0.207031 -11.019531 0.503906 -11.128906 0.671875 -11.296875 C 0.847656 -11.472656 0.9375 -11.742188 0.9375 -12.109375 L 0.953125 -13.625 L 2.453125 -13.84375 L 2.796875 -11.453125 L 5.65625 -11.859375 L 5.984375 -9.671875 L 3.125 -9.265625 L 3.84375 -4.28125 C 3.925781 -3.707031 4.117188 -3.335938 4.421875 -3.171875 C 4.734375 -3.015625 5.097656 -2.960938 5.515625 -3.015625 C 5.765625 -3.054688 6.007812 -3.125 6.25 -3.21875 C 6.488281 -3.3125 6.710938 -3.453125 6.921875 -3.640625 L 7.28125 -1.171875 C 6.882812 -0.960938 6.507812 -0.804688 6.15625 -0.703125 C 5.8125 -0.609375 5.503906 -0.546875 5.234375 -0.515625 Z M 5.234375 -0.515625 "/></g></g></g><g fill="#2e2420" fill-opacity="1"><g transform="translate(99.82011, 96.255334)"><g><path d="M 4.8125 -1.484375 C 4.300781 -1.296875 3.828125 -1.203125 3.390625 -1.203125 C 2.953125 -1.203125 2.539062 -1.289062 2.15625 -1.46875 C 1.78125 -1.644531 1.429688 -1.898438 1.109375 -2.234375 C 0.785156 -2.578125 0.484375 -2.984375 0.203125 -3.453125 C -0.0664062 -3.921875 -0.3125 -4.46875 -0.53125 -5.09375 L -2.59375 -10.6875 L -0.09375 -11.59375 L 1.765625 -6.53125 C 1.878906 -6.207031 2.019531 -5.859375 2.1875 -5.484375 C 2.363281 -5.117188 2.578125 -4.78125 2.828125 -4.46875 C 3.078125 -4.164062 3.367188 -3.945312 3.703125 -3.8125 C 4.046875 -3.675781 4.453125 -3.691406 4.921875 -3.859375 C 5.296875 -4.003906 5.59375 -4.222656 5.8125 -4.515625 C 6.03125 -4.816406 6.175781 -5.179688 6.25 -5.609375 C 6.332031 -6.035156 6.347656 -6.503906 6.296875 -7.015625 C 6.242188 -7.523438 6.125 -8.0625 5.9375 -8.625 L 4.265625 -13.203125 L 6.75 -14.109375 L 8.953125 -8.125 L 10.515625 -3.859375 L 8.46875 -3.109375 L 7.28125 -6.4375 L 6.953125 -6.3125 C 7.097656 -5.40625 7.113281 -4.632812 7 -4 C 6.894531 -3.363281 6.660156 -2.84375 6.296875 -2.4375 C 5.929688 -2.03125 5.4375 -1.710938 4.8125 -1.484375 Z M 4.8125 -1.484375 "/></g></g></g><g fill="#2e2420" fill-opacity="1"><g transform="translate(115.884395, 89.492925)"><g/></g></g><g fill="#2e2420" fill-opacity="1"><g transform="translate(124.245567, 84.427539)"><g><path d="M 3.328125 1.625 L -2.578125 -5.046875 L -6.171875 -9.109375 L -4.5 -10.59375 L -2.53125 -8.3125 L -2.265625 -8.53125 C -2.628906 -9.15625 -2.859375 -9.753906 -2.953125 -10.328125 C -3.046875 -10.910156 -2.992188 -11.457031 -2.796875 -11.96875 C -2.597656 -12.476562 -2.25 -12.953125 -1.75 -13.390625 C -1.03125 -14.023438 -0.257812 -14.390625 0.5625 -14.484375 C 1.382812 -14.578125 2.21875 -14.414062 3.0625 -14 C 3.90625 -13.59375 4.71875 -12.953125 5.5 -12.078125 C 6.226562 -11.253906 6.75 -10.410156 7.0625 -9.546875 C 7.382812 -8.691406 7.457031 -7.863281 7.28125 -7.0625 C 7.113281 -6.269531 6.671875 -5.550781 5.953125 -4.90625 C 5.421875 -4.4375 4.878906 -4.144531 4.328125 -4.03125 C 3.785156 -3.925781 3.234375 -3.957031 2.671875 -4.125 C 2.117188 -4.300781 1.550781 -4.566406 0.96875 -4.921875 L 0.703125 -4.6875 C 1.003906 -4.4375 1.316406 -4.1875 1.640625 -3.9375 C 1.960938 -3.6875 2.265625 -3.429688 2.546875 -3.171875 C 2.828125 -2.910156 3.085938 -2.648438 3.328125 -2.390625 L 5.3125 -0.140625 Z M 3.890625 -5.96875 C 4.285156 -6.3125 4.523438 -6.71875 4.609375 -7.1875 C 4.691406 -7.664062 4.628906 -8.171875 4.421875 -8.703125 C 4.210938 -9.234375 3.878906 -9.757812 3.421875 -10.28125 C 2.941406 -10.820312 2.453125 -11.21875 1.953125 -11.46875 C 1.453125 -11.726562 0.960938 -11.84375 0.484375 -11.8125 C 0.00390625 -11.78125 -0.429688 -11.59375 -0.828125 -11.25 C -1.171875 -10.945312 -1.40625 -10.597656 -1.53125 -10.203125 C -1.65625 -9.816406 -1.691406 -9.421875 -1.640625 -9.015625 C -1.597656 -8.617188 -1.488281 -8.234375 -1.3125 -7.859375 C -1.132812 -7.484375 -0.921875 -7.15625 -0.671875 -6.875 L -0.453125 -6.625 C -0.265625 -6.414062 -0.0390625 -6.222656 0.21875 -6.046875 C 0.476562 -5.867188 0.757812 -5.71875 1.0625 -5.59375 C 1.375 -5.46875 1.695312 -5.382812 2.03125 -5.34375 C 2.363281 -5.3125 2.6875 -5.34375 3 -5.4375 C 3.320312 -5.539062 3.617188 -5.71875 3.890625 -5.96875 Z M 3.890625 -5.96875 "/></g></g></g><g fill="#2e2420" fill-opacity="1"><g transform="translate(137.361089, 71.910055)"><g><path d="M 2.484375 -3.109375 C 2.148438 -2.628906 1.75 -2.253906 1.28125 -1.984375 C 0.820312 -1.722656 0.328125 -1.609375 -0.203125 -1.640625 C -0.734375 -1.679688 -1.265625 -1.882812 -1.796875 -2.25 C -2.398438 -2.675781 -2.789062 -3.148438 -2.96875 -3.671875 C -3.15625 -4.191406 -3.195312 -4.734375 -3.09375 -5.296875 C -2.988281 -5.859375 -2.8125 -6.414062 -2.5625 -6.96875 C -2.3125 -7.519531 -2.066406 -8.035156 -1.828125 -8.515625 C -1.597656 -8.972656 -1.425781 -9.347656 -1.3125 -9.640625 C -1.207031 -9.929688 -1.175781 -10.171875 -1.21875 -10.359375 C -1.257812 -10.554688 -1.382812 -10.726562 -1.59375 -10.875 C -1.84375 -11.050781 -2.109375 -11.15625 -2.390625 -11.1875 C -2.671875 -11.21875 -2.945312 -11.15625 -3.21875 -11 C -3.5 -10.851562 -3.765625 -10.59375 -4.015625 -10.21875 C -4.242188 -9.894531 -4.40625 -9.539062 -4.5 -9.15625 C -4.59375 -8.78125 -4.59375 -8.398438 -4.5 -8.015625 C -4.40625 -7.628906 -4.179688 -7.253906 -3.828125 -6.890625 L -5.734375 -5.34375 C -6.117188 -5.800781 -6.398438 -6.269531 -6.578125 -6.75 C -6.765625 -7.226562 -6.851562 -7.722656 -6.84375 -8.234375 C -6.84375 -8.753906 -6.742188 -9.28125 -6.546875 -9.8125 C -6.347656 -10.34375 -6.066406 -10.867188 -5.703125 -11.390625 C -5.210938 -12.097656 -4.707031 -12.628906 -4.1875 -12.984375 C -3.675781 -13.335938 -3.148438 -13.535156 -2.609375 -13.578125 C -2.078125 -13.617188 -1.53125 -13.535156 -0.96875 -13.328125 C -0.40625 -13.128906 0.160156 -12.832031 0.734375 -12.4375 L 2.390625 -11.28125 C 2.785156 -11.007812 3.195312 -10.738281 3.625 -10.46875 C 4.050781 -10.195312 4.476562 -9.925781 4.90625 -9.65625 C 5.34375 -9.382812 5.769531 -9.140625 6.1875 -8.921875 L 4.84375 -6.984375 C 4.488281 -7.179688 4.109375 -7.390625 3.703125 -7.609375 C 3.304688 -7.835938 2.914062 -8.078125 2.53125 -8.328125 L 2.34375 -8.0625 C 2.675781 -7.601562 2.925781 -7.097656 3.09375 -6.546875 C 3.257812 -5.992188 3.296875 -5.425781 3.203125 -4.84375 C 3.117188 -4.257812 2.878906 -3.679688 2.484375 -3.109375 Z M 1.46875 -5.09375 C 1.625 -5.3125 1.742188 -5.566406 1.828125 -5.859375 C 1.921875 -6.148438 1.96875 -6.46875 1.96875 -6.8125 C 1.96875 -7.15625 1.90625 -7.507812 1.78125 -7.875 C 1.664062 -8.238281 1.488281 -8.601562 1.25 -8.96875 L -0.21875 -9.921875 L 0.140625 -10.3125 C 0.160156 -10.007812 0.117188 -9.6875 0.015625 -9.34375 C -0.078125 -9.007812 -0.207031 -8.664062 -0.375 -8.3125 C -0.539062 -7.957031 -0.703125 -7.601562 -0.859375 -7.25 C -1.023438 -6.894531 -1.148438 -6.554688 -1.234375 -6.234375 C -1.316406 -5.910156 -1.316406 -5.609375 -1.234375 -5.328125 C -1.160156 -5.054688 -0.96875 -4.8125 -0.65625 -4.59375 C -0.28125 -4.332031 0.0976562 -4.25 0.484375 -4.34375 C 0.867188 -4.445312 1.195312 -4.695312 1.46875 -5.09375 Z M 1.46875 -5.09375 "/></g></g></g><g fill="#2e2420" fill-opacity="1"><g transform="translate(146.546602, 57.592577)"><g><path d="M 2.375 -5.203125 C 2.09375 -4.515625 1.773438 -3.921875 1.421875 -3.421875 C 1.066406 -2.921875 0.679688 -2.523438 0.265625 -2.234375 C -0.140625 -1.953125 -0.570312 -1.769531 -1.03125 -1.6875 C -1.5 -1.601562 -1.972656 -1.628906 -2.453125 -1.765625 L -2.34375 -3.96875 C -1.988281 -3.875 -1.625 -3.878906 -1.25 -3.984375 C -0.875 -4.097656 -0.53125 -4.328125 -0.21875 -4.671875 C 0.0820312 -5.023438 0.347656 -5.492188 0.578125 -6.078125 C 0.835938 -6.710938 0.9375 -7.242188 0.875 -7.671875 C 0.820312 -8.109375 0.609375 -8.40625 0.234375 -8.5625 C -0.0351562 -8.664062 -0.289062 -8.648438 -0.53125 -8.515625 C -0.769531 -8.390625 -1.015625 -8.164062 -1.265625 -7.84375 C -1.523438 -7.53125 -1.8125 -7.140625 -2.125 -6.671875 C -2.414062 -6.222656 -2.726562 -5.78125 -3.0625 -5.34375 C -3.394531 -4.914062 -3.753906 -4.539062 -4.140625 -4.21875 C -4.535156 -3.90625 -4.960938 -3.703125 -5.421875 -3.609375 C -5.890625 -3.515625 -6.40625 -3.578125 -6.96875 -3.796875 C -7.582031 -4.046875 -8.050781 -4.425781 -8.375 -4.9375 C -8.707031 -5.445312 -8.875 -6.066406 -8.875 -6.796875 C -8.882812 -7.535156 -8.710938 -8.347656 -8.359375 -9.234375 C -8.023438 -10.066406 -7.613281 -10.742188 -7.125 -11.265625 C -6.632812 -11.796875 -6.097656 -12.160156 -5.515625 -12.359375 C -4.929688 -12.566406 -4.304688 -12.597656 -3.640625 -12.453125 L -3.859375 -10.171875 C -4.242188 -10.285156 -4.601562 -10.289062 -4.9375 -10.1875 C -5.269531 -10.09375 -5.566406 -9.898438 -5.828125 -9.609375 C -6.097656 -9.328125 -6.328125 -8.953125 -6.515625 -8.484375 C -6.753906 -7.878906 -6.835938 -7.367188 -6.765625 -6.953125 C -6.691406 -6.535156 -6.476562 -6.253906 -6.125 -6.109375 C -5.851562 -6.003906 -5.585938 -6.023438 -5.328125 -6.171875 C -5.078125 -6.316406 -4.828125 -6.554688 -4.578125 -6.890625 C -4.328125 -7.222656 -4.039062 -7.609375 -3.71875 -8.046875 C -3.414062 -8.535156 -3.097656 -8.992188 -2.765625 -9.421875 C -2.441406 -9.847656 -2.09375 -10.210938 -1.71875 -10.515625 C -1.34375 -10.816406 -0.929688 -11.007812 -0.484375 -11.09375 C -0.046875 -11.1875 0.453125 -11.125 1.015625 -10.90625 C 1.679688 -10.632812 2.179688 -10.226562 2.515625 -9.6875 C 2.847656 -9.144531 3 -8.492188 2.96875 -7.734375 C 2.9375 -6.972656 2.738281 -6.128906 2.375 -5.203125 Z M 2.375 -5.203125 "/></g></g></g><g fill="#2e2420" fill-opacity="1"><g transform="translate(151.837519, 42.535208)"><g><path d="M 0.28125 -1.390625 L -10.421875 -3.578125 L -9.890625 -6.15625 L 0.8125 -3.96875 Z M -11.78125 -5.21875 C -11.882812 -4.695312 -12.070312 -4.320312 -12.34375 -4.09375 C -12.625 -3.863281 -12.972656 -3.796875 -13.390625 -3.890625 C -13.828125 -3.972656 -14.125 -4.171875 -14.28125 -4.484375 C -14.445312 -4.804688 -14.476562 -5.226562 -14.375 -5.75 C -14.257812 -6.28125 -14.0625 -6.660156 -13.78125 -6.890625 C -13.507812 -7.128906 -13.15625 -7.207031 -12.71875 -7.125 C -12.300781 -7.03125 -12.007812 -6.820312 -11.84375 -6.5 C -11.6875 -6.175781 -11.664062 -5.75 -11.78125 -5.21875 Z M -11.78125 -5.21875 "/></g></g></g><g fill="#2e2420" fill-opacity="1"><g transform="translate(153.795341, 32.354176)"><g><path d="M 0.34375 -6.296875 C 0.332031 -5.210938 0.101562 -4.265625 -0.34375 -3.453125 C -0.789062 -2.648438 -1.441406 -2.019531 -2.296875 -1.5625 C -3.160156 -1.101562 -4.21875 -0.882812 -5.46875 -0.90625 C -6.75 -0.914062 -7.804688 -1.160156 -8.640625 -1.640625 C -9.484375 -2.128906 -10.109375 -2.789062 -10.515625 -3.625 C -10.921875 -4.457031 -11.117188 -5.394531 -11.109375 -6.4375 C -11.085938 -7.5 -10.851562 -8.429688 -10.40625 -9.234375 C -9.96875 -10.046875 -9.316406 -10.679688 -8.453125 -11.140625 C -7.597656 -11.609375 -6.535156 -11.835938 -5.265625 -11.828125 C -3.984375 -11.804688 -2.921875 -11.550781 -2.078125 -11.0625 C -1.234375 -10.570312 -0.613281 -9.910156 -0.21875 -9.078125 C 0.175781 -8.253906 0.363281 -7.328125 0.34375 -6.296875 Z M -1.65625 -6.40625 C -1.644531 -6.75 -1.695312 -7.082031 -1.8125 -7.40625 C -1.925781 -7.738281 -2.117188 -8.03125 -2.390625 -8.28125 C -2.660156 -8.539062 -3.023438 -8.75 -3.484375 -8.90625 C -3.941406 -9.070312 -4.503906 -9.160156 -5.171875 -9.171875 C -5.878906 -9.171875 -6.476562 -9.09375 -6.96875 -8.9375 C -7.457031 -8.78125 -7.847656 -8.566406 -8.140625 -8.296875 C -8.441406 -8.023438 -8.660156 -7.71875 -8.796875 -7.375 C -8.929688 -7.039062 -9.003906 -6.691406 -9.015625 -6.328125 C -9.015625 -5.992188 -8.957031 -5.660156 -8.84375 -5.328125 C -8.738281 -5.003906 -8.550781 -4.710938 -8.28125 -4.453125 C -8.019531 -4.203125 -7.660156 -3.992188 -7.203125 -3.828125 C -6.742188 -3.660156 -6.171875 -3.570312 -5.484375 -3.5625 C -4.773438 -3.550781 -4.179688 -3.625 -3.703125 -3.78125 C -3.222656 -3.9375 -2.828125 -4.148438 -2.515625 -4.421875 C -2.210938 -4.691406 -1.992188 -4.992188 -1.859375 -5.328125 C -1.722656 -5.671875 -1.65625 -6.03125 -1.65625 -6.40625 Z M -12.328125 -7.28125 L -12.359375 -5.203125 L -15.6875 -6.734375 L -15.65625 -9.453125 Z M -12.328125 -7.28125 "/></g></g></g><g fill="#2e2420" fill-opacity="1"><g transform="translate(153.412136, 14.594309)"><g><path d="M -0.328125 -1.390625 L -6.734375 0.109375 L -10.96875 1.09375 L -11.46875 -1.046875 L -8.078125 -1.78125 L -8.15625 -2.125 C -9.070312 -2.113281 -9.832031 -2.210938 -10.4375 -2.421875 C -11.050781 -2.640625 -11.535156 -2.96875 -11.890625 -3.40625 C -12.253906 -3.84375 -12.507812 -4.375 -12.65625 -5 C -12.8125 -5.65625 -12.820312 -6.226562 -12.6875 -6.71875 C -12.5625 -7.21875 -12.335938 -7.648438 -12.015625 -8.015625 C -11.691406 -8.378906 -11.3125 -8.6875 -10.875 -8.9375 C -10.445312 -9.1875 -10 -9.390625 -9.53125 -9.546875 C -9.070312 -9.710938 -8.640625 -9.84375 -8.234375 -9.9375 L -2.625 -11.25 L -2.015625 -8.65625 L -7.296875 -7.421875 C -7.566406 -7.359375 -7.890625 -7.269531 -8.265625 -7.15625 C -8.640625 -7.039062 -8.992188 -6.875 -9.328125 -6.65625 C -9.671875 -6.4375 -9.941406 -6.160156 -10.140625 -5.828125 C -10.335938 -5.503906 -10.378906 -5.097656 -10.265625 -4.609375 C -10.128906 -4.023438 -9.832031 -3.578125 -9.375 -3.265625 C -8.925781 -2.960938 -8.375 -2.773438 -7.71875 -2.703125 C -7.0625 -2.640625 -6.363281 -2.6875 -5.625 -2.84375 L -0.921875 -3.9375 Z M -0.328125 -1.390625 "/></g></g></g></g></g></svg>